<svg xmlns="http://www.w3.org/2000/svg" width="256" height="256" fill="none" viewBox="0 0 256 256" id="facebook">
  <path fill="#353535" fill-rule="evenodd" d="M30 79C30 64.7674 36.068 51.9521 45.7581 43L108.75 105.113C108.75 105.17 108.75 105.228 108.75 105.285V116.285H97.75C93.953 116.285 90.875 119.363 90.875 123.16V136.91C90.875 140.707 93.953 143.785 97.75 143.785H108.75V176.785C108.75 180.582 111.828 183.66 115.625 183.66H129.375C133.172 183.66 136.25 180.582 136.25 176.785V143.785H147.97L214.109 209C205.124 219.411 191.831 226 177 226H79C51.938 226 30 204.062 30 177V79Z" clip-rule="evenodd"></path>
  <path fill="#000" d="M214.109 209C221.519 200.415 226 189.231 226 177V79C226 51.938 204.062 30 177 30H79C66.1706 30 54.4928 34.9305 45.7581 43L108.75 105.113C108.843 86.9666 123.582 72.285 141.75 72.285H155.5C159.297 72.285 162.375 75.363 162.375 79.16V92.91C162.375 96.707 159.297 99.785 155.5 99.785H141.75C138.712 99.785 136.25 102.247 136.25 105.285V116.285H152.329C156.513 116.285 159.727 119.991 159.135 124.132L157.171 137.882C156.687 141.269 153.786 143.785 150.365 143.785H147.97L214.109 209Z"></path>
  <path fill="#353535" d="M117 105.285C117 91.616 128.081 80.535 141.75 80.535H154.125V91.535H141.75C134.156 91.535 128 97.6911 128 105.285V117.66C128 121.457 131.078 124.535 134.875 124.535H150.744L149.172 135.535H139.604H134.875C131.078 135.535 128 138.613 128 142.41V175.41H117V142.41C117 138.613 113.922 135.535 110.125 135.535H99.125V124.535H110.125C113.922 124.535 117 121.457 117 117.66V113.247V105.285Z"></path>
</svg>
