<svg xmlns="http://www.w3.org/2000/svg" width="256" height="256" fill="none" viewBox="0 0 256 256" id="instagram">
  <path fill="#353535" d="M128 150C138.631 150 147.25 141.381 147.25 130.75C147.25 120.119 138.631 111.5 128 111.5C117.369 111.5 108.75 120.119 108.75 130.75C108.75 141.381 117.369 150 128 150Z"></path>
  <path fill="#353535" fill-rule="evenodd" d="M128 174.75C117.567 174.75 110.295 174.742 104.656 174.231C99.1303 173.73 95.9889 172.799 93.625 171.434C89.8625 169.262 86.7381 166.137 84.5659 162.375C83.2011 160.011 82.2698 156.87 81.769 151.344C81.2579 145.705 81.25 138.433 81.25 128C81.25 117.567 81.2579 110.295 81.769 104.656C82.2698 99.1303 83.2011 95.9889 84.5659 93.625C86.7381 89.8625 89.8625 86.7381 93.625 84.5659C95.9889 83.2011 99.1303 82.2698 104.656 81.769C110.295 81.2579 117.567 81.25 128 81.25C138.433 81.25 145.705 81.2579 151.344 81.769C156.87 82.2698 160.011 83.2011 162.375 84.5659C166.137 86.7381 169.262 89.8625 171.434 93.625C172.799 95.9889 173.73 99.1303 174.231 104.656C174.742 110.295 174.75 117.567 174.75 128C174.75 138.433 174.742 145.705 174.231 151.344C173.73 156.87 172.799 160.011 171.434 162.375C169.262 166.137 166.137 169.262 162.375 171.434C160.011 172.799 156.87 173.73 151.344 174.231C145.705 174.742 138.433 174.75 128 174.75ZM161 97.75C161 102.306 157.306 106 152.75 106C148.194 106 144.5 102.306 144.5 97.75C144.5 93.1936 148.194 89.5 152.75 89.5C157.306 89.5 161 93.1936 161 97.75ZM128 158.25C143.188 158.25 155.5 145.938 155.5 130.75C155.5 115.562 143.188 103.25 128 103.25C112.812 103.25 100.5 115.562 100.5 130.75C100.5 145.938 112.812 158.25 128 158.25Z" clip-rule="evenodd"></path>
  <path fill="#353535" fill-rule="evenodd" d="M30 79C30 64.7674 36.068 51.9521 45.7581 43L84.3725 81.0751C81.6144 83.4683 79.2615 86.3124 77.4212 89.5C73 97.1577 73 107.438 73 128C73 148.562 73 158.842 77.4212 166.5C80.3175 171.517 84.4834 175.682 89.5 178.579C97.1577 183 107.438 183 128 183C148.562 183 158.842 183 166.5 178.579C169.95 176.587 172.998 173.994 175.507 170.937L214.109 209C205.124 219.411 191.831 226 177 226H79C51.938 226 30 204.062 30 177V79Z" clip-rule="evenodd"></path>
  <path fill="#000" d="M214.109 209C221.519 200.415 226 189.231 226 177V79C226 51.938 204.062 30 177 30H79C66.1706 30 54.4928 34.9305 45.7581 43L84.3725 81.0751C85.955 79.7019 87.6709 78.4772 89.5 77.4212C97.1577 73 107.438 73 128 73C148.562 73 158.842 73 166.5 77.4212C171.517 80.3175 175.682 84.4834 178.579 89.5C183 97.1577 183 107.438 183 128C183 148.562 183 158.842 178.579 166.5C177.675 168.066 176.646 169.55 175.507 170.937L214.109 209Z"></path>
</svg>
