<svg xmlns="http://www.w3.org/2000/svg" viewBox="0 0 24 24" id="pintrest">
  <g>
    <g>
      <path fill="none" d="M0 0h24v24H0z"></path>
      <path fill="#ff000e" d="M1 12C1 4 4 1 12 1s11 3 11 11-3 11-11 11S1 20 1 12"></path>
      <path fill="#fff" d="M8.37 20.18a.12.12 0 0 0 .22.05 9.41 9.41 0 0 0 1.71-3c.11-.4.66-2.5.66-2.5a2.73 2.73 0 0 0 2.31 1.14c3 0 5.09-2.67 5.09-6.24 0-2.7-2.37-5.21-6-5.21-4.48 0-6.74 3.1-6.74 5.68a3.48 3.48 0 0 0 1.95 3.5.33.33 0 0 0 .43-.23c.05-.16.15-.56.2-.73a.43.43 0 0 0-.14-.51 2.55 2.55 0 0 1-.62-1.78A4.39 4.39 0 0 1 12.13 6c2.53 0 3.92 1.5 3.92 3.49 0 2.62-1.2 4.84-3 4.84a1.43 1.43 0 0 1-1.49-1.76 19.17 19.17 0 0 0 .83-3.22A1.23 1.23 0 0 0 11.13 8c-1 0-1.82 1-1.82 2.35a3.4 3.4 0 0 0 .3 1.44l-1.21 5a9.79 9.79 0 0 0-.03 3.39Z"></path>
    </g>
  </g>
</svg>
